# xmcd
# 
# Track frame offsets:
#     150
#     13223
#     29990
#     39750
#     52883
#     68295
#     88438
#     107431
#     124175
#     144735
#     159337
#     177420
#     194551
#     212734
#     226047
#     247501
#     265294
# 
# Disc length: 3706
# 
# Revision: 2
# Processed by: cddbd v1.5.2PL0 Copyright (c) Steve Scherf et al.
# Submitted via: fre:ac v1.0.17
# 
DISCID=e40e7811
DTITLE=Various Artist - Toulon City Blues CD1
DYEAR=2002
DGENRE=Blues
TTITLE0=Slidin' Delta - We gonna move
TTITLE1=Mo's Garage - Who's been talking
TTITLE2=Jean Paul Bonnafoux - It hurts me too
TTITLE3=Magic Buck - If i had possession
TTITLE4=New Blues - Don't you mess with me
TTITLE5=Lightnin' Pickers - Statboro blues
TTITLE6=Roland Malines - Cocaine blues
TTITLE7=Strange Fruit - Fine and mellow
TTITLE8=Sloppy Frog - Rambling on my mind
TTITLE9=Johnny Favourite - Wait on time
TTITLE10=Tres Hombres - Start it up
TTITLE11=P.A.M. blues - Cookie blues
TTITLE12=Kaptain Melody - Hard way
TTITLE13=Cosimo and Co - Walking by myself
TTITLE14=No Smoking - Congo square
TTITLE15=Marc Rousseau - Roadhouse blues
TTITLE16=Urban Blues - You gotta move
EXTD=Enregistré par TANDEM à TOULON FRANCE VAR
EXTT0=
EXTT1=
EXTT2=
EXTT3=
EXTT4=
EXTT5=
EXTT6=
EXTT7=
EXTT8=
EXTT9=
EXTT10=
EXTT11=
EXTT12=
EXTT13=
EXTT14=
EXTT15=
EXTT16=
PLAYORDER=
